<svg xmlns="http://www.w3.org/2000/svg" width="24" height="24" viewBox="0 0 24 24" fill="none">
  
  <path d="M7 3H4a1 1 0 0 0-1 1v3M17 3h3a1 1 0 0 1 1 1v3M3 17v3a1 1 0 0 0 1 1h3M21 17v3a1 1 0 0 1-1 1h-3" stroke="#9AA1A9" stroke-width="2" stroke-linecap="round" stroke-linejoin="round"/>
  <rect x="7" y="7" width="3" height="3" rx="0.5" stroke="#9AA1A9" stroke-width="2" stroke-linecap="round" stroke-linejoin="round"/>
  <rect x="14" y="7" width="3" height="3" rx="0.5" stroke="#9AA1A9" stroke-width="2" stroke-linecap="round" stroke-linejoin="round"/>
  <rect x="7" y="14" width="3" height="3" rx="0.5" stroke="#9AA1A9" stroke-width="2" stroke-linecap="round" stroke-linejoin="round"/>
  <path d="M14 14h2v2h-2zM17 17h-3v-1h3z" fill="#9AA1A9"/>
</svg>
