<svg xmlns="http://www.w3.org/2000/svg" width="24" height="24" viewBox="0 0 24 24" fill="none">
  
  <circle cx="12" cy="12" r="3" stroke="#9AA1A9" stroke-width="2" stroke-linecap="round" stroke-linejoin="round"/>
  <path d="M19.4 13.5c.1-.5.1-1 .1-1.5s0-1-.1-1.5l2-1.55-2-3.46-2.38.96a7.9 7.9 0 0 0-2.6-1.5L14.05 2h-4.1l-.37 2.96a7.9 7.9 0 0 0-2.6 1.5L4.6 5.5l-2 3.46 2 1.55A8.3 8.3 0 0 0 4.5 12c0 .5 0 1 .1 1.5l-2 1.55 2 3.46 2.38-.96a7.9 7.9 0 0 0 2.6 1.5l.37 2.96h4.1l.37-2.96a7.9 7.9 0 0 0 2.6-1.5l2.38.96 2-3.46-2-1.55Z" stroke="#9AA1A9" stroke-width="2" stroke-linecap="round" stroke-linejoin="round"/>
</svg>
