<svg xmlns="http://www.w3.org/2000/svg" width="256" height="256" viewBox="0 0 256 256" fill="none">
  <defs>
    <linearGradient id="bg" x1="0" y1="0" x2="256" y2="256" gradientUnits="userSpaceOnUse">
      <stop stop-color="#13A39C"/>
      <stop offset="1" stop-color="#085858"/>
    </linearGradient>
    <linearGradient id="sheen" x1="0" y1="0" x2="0" y2="256" gradientUnits="userSpaceOnUse">
      <stop stop-color="#FFFFFF" stop-opacity="0.18"/>
      <stop offset="0.5" stop-color="#FFFFFF" stop-opacity="0"/>
    </linearGradient>
  </defs>
  <rect width="256" height="256" rx="58" fill="url(#bg)"/>
  <rect width="256" height="256" rx="58" fill="url(#sheen)"/>
  <g transform="translate(48,48) scale(6.6667)">
    <path d="M5 5h2.4v6.2c1.45-.95 2.9-1.35 4.6-1.35s3.15.4 4.6 1.35V5H19v14h-2.4v-4.8c-1.25-1.15-2.75-1.75-4.6-1.75s-3.35.6-4.6 1.75V19H5V5Zm2.4 10.55v1.1c1.45-1 2.9-1.45 4.6-1.45s3.15.45 4.6 1.45v-1.1c-1.32-1.08-2.82-1.6-4.6-1.6s-3.28.52-4.6 1.6Z" fill="#FFFFFF"/>
  </g>
</svg>
